PathFileType	4	(X/Y/Z)	C:/Users/opensim2020/Desktop/walking_exp_matlab/subject02_walking12_straight_02.trc																																																																																																																												
DataRate	CameraRate	NumFrames	NumMarkers	Units	OrigDataRate	OrigDataStartFrame	OrigNumFrames																																																																																																																								
100	100	4	42	mm	100	1146	149																																																																																																																								
Frame#	Time	LFHD			RFHD			LBHD			RBHD			C7			T10			CLAV			STRN			RBAK			LSHO			LUPA			LELB			LFRM			LWRA			LWRB			LFIN			RSHO			RUPA			RELB			RFRM			RWRA			RWRB			RFIN			LASI			RASI			LPSI			RPSI			LTHI			LKNE			LTIB			LANK			LHEE			LTOE			RTHI			RKNE			RTIB			RANK			RHEE			RTOE			*39			*40			*41		
		X1	Y1	Z1	X2	Y2	Z2	X3	Y3	Z3	X4	Y4	Z4	X5	Y5	Z5	X6	Y6	Z6	X7	Y7	Z7	X8	Y8	Z8	X9	Y9	Z9	X10	Y10	Z10	X11	Y11	Z11	X12	Y12	Z12	X13	Y13	Z13	X14	Y14	Z14	X15	Y15	Z15	X16	Y16	Z16	X17	Y17	Z17	X18	Y18	Z18	X19	Y19	Z19	X20	Y20	Z20	X21	Y21	Z21	X22	Y22	Z22	X23	Y23	Z23	X24	Y24	Z24	X25	Y25	Z25	X26	Y26	Z26	X27	Y27	Z27	X28	Y28	Z28	X29	Y29	Z29	X30	Y30	Z30	X31	Y31	Z31	X32	Y32	Z32	X33	Y33	Z33	X34	Y34	Z34	X35	Y35	Z35	X36	Y36	Z36	X37	Y37	Z37	X38	Y38	Z38	X39	Y39	Z39	X40	Y40	Z40	X41	Y41	Z41	X42	Y42	Z42
																																																																																																																															
131	1.3	749.5119	1691.16113	-1483.5697	702.77094	1662.38416	-1349.87427	618.72955	1640.18335	-1538.74707	561.92902	1612.38757	-1408.61646	529.401	1490.68726	-1486.21887	485.57883	1207.75562	-1487.79541	670.3219	1422.64185	-1479.44934	727.75732	1254.10645	-1476.0116	468.07712	1305.56653	-1438.43689	622.74713	1479.70374	-1649.48914	689.20605	1321.56177	-1767.6687	768.12561	1212.81714	-1817.94653	878.30145	1137.65198	-1839.07214	1007.89288	1103.73584	-1810.86963	979.79608	1070.08618	-1845.8728	1042.01172	1056.61353	-1858.87585	577.87061	1442.73645	-1293.08142	515.90771	1255.54736	-1228.4917	508.63748	1108.34741	-1219.19885	514.4259	987.89697	-1202.99487	543.75378	854.84418	-1222.62158	493.87192	859.27197	-1196.53503	517.48645	789.724	-1194.91602	720.30463	956.40814	-1627.90723	737.16479	946.01056	-1369.7312	514.64789	994.1048	-1531.74487	513.61926	989.25604	-1418.58667	585.63977	658.71765	-1684.85681	504.96024	471.64944	-1662.31384	374.07263	326.29663	-1666.46582	283.08569	117.3018	-1643.05554	241.43617	104.59543	-1593.23181	417.51105	30.05152	-1652.64697	747.58411	650.63745	-1293.79126	807.62866	452.79382	-1338.42859	818.58069	263.57813	-1344.31897	868.3877	78.1741	-1382.26013	864.91644	27.43458	-1446.42358	1023.11975	54.16104	-1338.1073	634.89313	1766.38635	-1419.90613	-2845.94043	1034.38782	3357.35327	NaN	NaN	NaN
132	1.31	760.93842	1689.87585	-1479.33276	713.47937	1661.15625	-1345.86096	630.51947	1638.59998	-1535.30383	573.01868	1610.69714	-1405.55054	540.22278	1488.66138	-1482.88562	498.42197	1205.66821	-1483.83936	682.10931	1421.30664	-1475.89014	740.51941	1253.47314	-1472.60303	480.89322	1303.11584	-1435.35205	634.0946	1478.33948	-1645.88745	699.94006	1320.01135	-1764.13171	778.1908	1210.99341	-1814.47058	889.06586	1136.50732	-1835.11328	1019.21051	1104.09729	-1806.4314	991.25696	1069.84961	-1841.255	1053.71643	1056.84436	-1853.95203	589.11041	1440.93347	-1289.57678	526.69543	1253.62207	-1225.60486	519.12	1106.62878	-1216.66931	524.1626	986.1496	-1200.34216	553.12994	853.12231	-1219.66553	502.79788	857.64502	-1194.23718	525.65778	787.80304	-1192.37122	734.95203	955.11261	-1625.31628	751.91064	945.65765	-1366.8949	528.89551	992.06818	-1528.43237	528.31281	986.91077	-1415.58716	599.76367	657.76965	-1683.47229	518.82874	471.68274	-1662.33423	383.87329	329.97369	-1665.72925	287.00568	123.48859	-1643.66162	246.47874	112.04869	-1593.09998	417.78415	30.01853	-1653.0708	762.59454	650.6546	-1290.14551	819.78076	450.62372	-1335.80835	830.03119	261.97458	-1345.87915	878.43475	79.15457	-1379.06177	869.44226	30.49949	-1442.93274	1033.75293	44.86937	-1337.26697	645.70142	1764.9054	-1416.34351	-2845.89673	1034.31348	3357.38599	NaN	NaN	NaN
133	1.32	772.48706	1689.41821	-1474.79407	724.03595	1660.53381	-1341.71533	642.55121	1638.00891	-1531.82458	584.0788	1609.95605	-1402.44507	550.65936	1487.03418	-1479.43994	511.4823	1204.44531	-1480.05237	693.63867	1420.65002	-1472.35559	752.96216	1253.60608	-1469.33203	492.51181	1301.5636	-1433.15417	645.3432	1477.44946	-1642.56396	710.42841	1318.3584	-1760.53064	787.94177	1208.83875	-1810.92725	899.37347	1134.85388	-1830.98169	1029.86279	1103.99158	-1801.84131	1002.11902	1068.91321	-1836.43225	1064.71997	1056.27625	-1848.71802	600.35504	1439.36499	-1285.9801	537.55194	1251.9364	-1222.57861	529.44055	1104.89832	-1214.1062	534.24329	984.58588	-1197.97168	562.78625	851.37341	-1216.68005	512.04309	856.16754	-1191.71802	534.29773	785.9621	-1189.70093	749.66107	953.79865	-1622.26135	766.07788	945.39435	-1364.00378	542.64679	990.50494	-1525.21716	543.17023	985.38324	-1412.35083	614.36597	657.02289	-1682.00354	533.98364	471.8605	-1662.32104	394.66864	334.24075	-1664.90869	292.18945	130.46349	-1644.23352	252.89365	120.86627	-1593.03149	417.99963	30.09267	-1653.4978	773.24609	650.35388	-1285.80212	833.04523	450.87234	-1333.00537	843.7088	263.47998	-1340.38464	887.90167	79.37787	-1375.26636	872.00372	32.05235	-1441.07141	1039.27063	40.33325	-1337.6123	656.65057	1764.24731	-1412.60376	-2845.82886	1034.3269	3357.28345	NaN	NaN	NaN
134	1.33	784.00391	1689.55151	-1470.08679	734.51611	1660.37695	-1337.42932	654.46808	1638.25269	-1528.18628	594.9986	1610.0094	-1399.42224	561.56915	1486.50549	-1476.02454	524.34491	1203.53589	-1477.17004	704.8266	1420.88684	-1468.75964	765.26208	1254.32092	-1466.06213	504.79413	1300.57568	-1429.9292	656.2771	1477.02881	-1639.51782	720.59277	1316.63513	-1756.93335	797.30603	1206.4137	-1807.24182	909.10907	1132.80884	-1826.59998	1039.27222	1102.65283	-1796.88257	1012.28796	1067.45435	-1831.30151	1075.07617	1055.02209	-1843.18152	610.89368	1438.03662	-1282.49683	548.19885	1250.2439	-1219.63696	540.06537	1103.37036	-1211.42017	544.38275	983.11157	-1194.99475	572.69147	849.80713	-1213.67004	521.67596	854.74646	-1189.38342	544.15381	784.91364	-1186.84143	764.21594	952.65259	-1618.64282	779.76471	945.5188	-1361.00061	557.23273	989.203	-1521.92944	557.52527	985.5799	-1408.79895	629.48688	656.59991	-1680.17847	550.56995	472.22702	-1662.61926	406.93127	339.36154	-1663.84753	298.75839	138.45441	-1644.51904	261.07428	130.85641	-1592.11462	417.97919	30.13181	-1653.84387	782.36694	650.00903	-1281.37854	850.25604	455.52057	-1330.65784	860.14215	267.2438	-1333.13074	890.21936	78.99262	-1375.60693	872.07526	32.32386	-1440.98352	1039.59875	36.99254	-1339.05029	667.6828	1764.08252	-1408.55823	-2845.86865	1034.28467	3357.25171	NaN	NaN	NaN
